<svg xmlns="http://www.w3.org/2000/svg" xmlns:oryx="http://oryx-editor.org" id="_DF4DD338-2DCB-46E9-989F-30C0553CA6EC" width="634" height="309" xmlns:xlink="http://www.w3.org/1999/xlink" xmlns:svg="http://www.w3.org/2000/svg"><defs><marker id="_B3DE6EFB-A17A-47FB-B95D-70CBC566AFFCstart" refX="1" refY="5" markerUnits="userSpaceOnUse" markerWidth="17" markerHeight="11" orient="auto" fill="#000000" stroke="#000000"> 	  		<path id="_B3DE6EFB-A17A-47FB-B95D-70CBC566AFFCconditional" d="M 0 5 L 8 0 L 16 5 L 8 10 L 0 5" fill="white" stroke="#000000" stroke-width="1" display="none"/> 			<path id="_B3DE6EFB-A17A-47FB-B95D-70CBC566AFFCdefault" d="M 5 0 L 11 10" fill="white" stroke="#000000" stroke-width="1" display="none"/> 	  	</marker><marker id="_B3DE6EFB-A17A-47FB-B95D-70CBC566AFFCend" refX="15" refY="6" markerUnits="userSpaceOnUse" markerWidth="15" markerHeight="12" orient="auto" fill="#000000" stroke="#000000"> 	  		<path id="_B3DE6EFB-A17A-47FB-B95D-70CBC566AFFCframe2" d="M 0 1 L 15 6 L 0 11z" fill="#000000" stroke="#000000" stroke-linejoin="round" stroke-width="2"/> 	  	</marker><marker id="_3E43BA02-E7B6-4AD5-9D3B-C668DE9C84C1start" refX="1" refY="5" markerUnits="userSpaceOnUse" markerWidth="17" markerHeight="11" orient="auto" fill="#000000" stroke="#000000"> 	  		<path id="_3E43BA02-E7B6-4AD5-9D3B-C668DE9C84C1conditional" d="M 0 5 L 8 0 L 16 5 L 8 10 L 0 5" fill="white" stroke="#000000" stroke-width="1" display="none"/> 			<path id="_3E43BA02-E7B6-4AD5-9D3B-C668DE9C84C1default" d="M 5 0 L 11 10" fill="white" stroke="#000000" stroke-width="1" display="none"/> 	  	</marker><marker id="_3E43BA02-E7B6-4AD5-9D3B-C668DE9C84C1end" refX="15" refY="6" markerUnits="userSpaceOnUse" markerWidth="15" markerHeight="12" orient="auto" fill="#000000" stroke="#000000"> 	  		<path id="_3E43BA02-E7B6-4AD5-9D3B-C668DE9C84C1frame2" d="M 0 1 L 15 6 L 0 11z" fill="#000000" stroke="#000000" stroke-linejoin="round" stroke-width="2"/> 	  	</marker><marker id="_3C2249B2-79C9-4B2E-A0C4-CADDC00A4395start" refX="1" refY="5" markerUnits="userSpaceOnUse" markerWidth="17" markerHeight="11" orient="auto" fill="#000000" stroke="#000000"> 	  		<path id="_3C2249B2-79C9-4B2E-A0C4-CADDC00A4395conditional" d="M 0 5 L 8 0 L 16 5 L 8 10 L 0 5" fill="white" stroke="#000000" stroke-width="1" display="none"/> 			<path id="_3C2249B2-79C9-4B2E-A0C4-CADDC00A4395default" d="M 5 0 L 11 10" fill="white" stroke="#000000" stroke-width="1" display="none"/> 	  	</marker><marker id="_3C2249B2-79C9-4B2E-A0C4-CADDC00A4395end" refX="15" refY="6" markerUnits="userSpaceOnUse" markerWidth="15" markerHeight="12" orient="auto" fill="#000000" stroke="#000000"> 	  		<path id="_3C2249B2-79C9-4B2E-A0C4-CADDC00A4395frame2" d="M 0 1 L 15 6 L 0 11z" fill="#000000" stroke="#000000" stroke-linejoin="round" stroke-width="2"/> 	  	</marker></defs><g stroke="none" font-family="Verdana, sans-serif" font-size-adjust="none" font-style="normal" font-variant="normal" font-weight="normal" line-heigth="normal" font-size="12"><g class="stencils" transform="translate(25, 16)"><g class="me"/><g class="children"><g id="_5CBC49FE-BF44-4188-B93C-C327B864A745" bpmn2nodeid="processStartEvent"><g class="stencils" transform="translate(0, 165)"><g class="me"><g pointer-events="fill" id="_5CBC49FE-BF44-4188-B93C-C327B864A745">        <defs id="_5CBC49FE-BF44-4188-B93C-C327B864A745__5CBC49FE-BF44-4188-B93C-C327B864A745_5"> 		<radialGradient id="_5CBC49FE-BF44-4188-B93C-C327B864A745background" cx="10%" cy="10%" r="100%" fx="10%" fy="10%"> 			<stop offset="0%" stop-color="#ffffff" stop-opacity="1" id="_5CBC49FE-BF44-4188-B93C-C327B864A745__5CBC49FE-BF44-4188-B93C-C327B864A745_6"/> 			<stop id="_5CBC49FE-BF44-4188-B93C-C327B864A745fill_el" offset="100%" stop-color="#9acd32" stop-opacity="1"/> 		</radialGradient> 	</defs> 	     <circle id="_5CBC49FE-BF44-4188-B93C-C327B864A745bg_frame" cx="15" cy="15" r="15" stroke="#000000" fill="url(#_5CBC49FE-BF44-4188-B93C-C327B864A745background) white" stroke-width="1" style="stroke-dasharray: 5.5, 3"/>      <circle id="_5CBC49FE-BF44-4188-B93C-C327B864A745frame" cx="15" cy="15" r="15" stroke="#000000" fill="none" stroke-width="1" display="inherit"/>  	<text font-size="11" id="_5CBC49FE-BF44-4188-B93C-C327B864A745text_name" x="15" y="32" oryx:align="top center" stroke="black" stroke-width="0pt" letter-spacing="-0.01px" fill="#000000" text-anchor="middle" transform="rotate(0 15 32)" visibility="inherit" oryx:fontSize="11"/>   </g></g><g class="children" style="overflow:hidden"/><g class="edge"/></g><g class="controls"><g class="dockers"/><g class="magnets" transform="translate(0, 165)"><g pointer-events="all" display="none" transform="translate(7, 7)"><circle cx="8" cy="8" r="4" stroke="none" fill="red" fill-opacity="0.3"/></g></g></g></g><g id="_A3AD3D40-D5D4-473E-B130-864719A018BF" bpmn2nodeid="_EB682465-FFC1-4881-AA8E-61D45456A43A"><g class="stencils" transform="translate(540, 240)"><g class="me"><g pointer-events="fill" id="_A3AD3D40-D5D4-473E-B130-864719A018BF">      <defs id="_A3AD3D40-D5D4-473E-B130-864719A018BF__A3AD3D40-D5D4-473E-B130-864719A018BF_5"> 		<radialGradient id="_A3AD3D40-D5D4-473E-B130-864719A018BFbackground" cx="10%" cy="10%" r="100%" fx="10%" fy="10%"> 			<stop offset="0%" stop-color="#ffffff" stop-opacity="1" id="_A3AD3D40-D5D4-473E-B130-864719A018BF__A3AD3D40-D5D4-473E-B130-864719A018BF_6"/> 			<stop id="_A3AD3D40-D5D4-473E-B130-864719A018BFfill_el" offset="100%" stop-color="#ff6347" stop-opacity="1"/> 		</radialGradient> 	</defs> 	     <circle id="_A3AD3D40-D5D4-473E-B130-864719A018BFbg_frame" cx="14" cy="14" r="14" stroke="#000000" fill="url(#_A3AD3D40-D5D4-473E-B130-864719A018BFbackground) white" stroke-width="3"/> 	<text font-size="11" id="_A3AD3D40-D5D4-473E-B130-864719A018BFtext_name" x="14" y="30" oryx:align="top center" stroke="black" stroke-width="0pt" letter-spacing="-0.01px" fill="#000000" text-anchor="middle" transform="rotate(0 14 30)" visibility="inherit" oryx:fontSize="11"/>   </g></g><g class="children" style="overflow:hidden"/><g class="edge"/></g><g class="controls"><g class="dockers"/><g class="magnets" transform="translate(540, 240)"><g pointer-events="all" display="none" transform="translate(6, 6)"><circle cx="8" cy="8" r="4" stroke="none" fill="red" fill-opacity="0.3"/></g></g></g></g><g id="_DD0FB20E-940C-4829-A453-319521059874" bpmn2nodeid="_9F11D643-3D5D-4099-BFD1-334B1406727C"><g class="stencils" transform="translate(480, 60)"><g class="me"><g pointer-events="fill" oryx:minimumSize="80 60" id="_DD0FB20E-940C-4829-A453-319521059874">   	<defs id="_DD0FB20E-940C-4829-A453-319521059874__DD0FB20E-940C-4829-A453-319521059874_17"> 		<radialGradient id="_DD0FB20E-940C-4829-A453-319521059874background" cx="10%" cy="10%" r="100%" fx="10%" fy="10%"> 			<stop offset="0%" stop-color="#ffffff" stop-opacity="1" id="_DD0FB20E-940C-4829-A453-319521059874__DD0FB20E-940C-4829-A453-319521059874_18"/> 			<stop id="_DD0FB20E-940C-4829-A453-319521059874fill_el" offset="100%" stop-color="#fafad2" stop-opacity="1"/> 		</radialGradient> 	</defs> 	<rect id="_DD0FB20E-940C-4829-A453-319521059874text_frame" oryx:anchors="bottom top right left" x="1" y="1" width="94" height="79" rx="10" ry="10" stroke="none" stroke-width="0" fill="none"/> 	<rect id="_DD0FB20E-940C-4829-A453-319521059874bg_frame" oryx:anchors="bottom top right left" x="0" y="0" width="100" height="80" rx="10" ry="10" stroke="#000000" stroke-width="1" fill="url(#_DD0FB20E-940C-4829-A453-319521059874background) #ffffcc"/> 	<rect id="_DD0FB20E-940C-4829-A453-319521059874frame" oryx:resize="vertical horizontal" oryx:anchors="bottom top right left" x="0" y="0" width="100" height="80" rx="10" ry="10" stroke="#000000" stroke-width="4" fill="none"/> 	<rect id="_DD0FB20E-940C-4829-A453-319521059874frame2" oryx:anchors="top bottom left right" oryx:resize="vertical horizontal" x="2.5" y="2.5" width="95" height="75" rx="8" ry="8" stroke="#000000" stroke-width="1" fill="none"/>     	<text font-size="12" id="_DD0FB20E-940C-4829-A453-319521059874text_name" x="50" y="40" oryx:align="middle center" oryx:fittoelem="text_frame" stroke="black" stroke-width="0pt" letter-spacing="-0.01px" fill="#000000" text-anchor="middle" transform="rotate(0 50 40)" visibility="inherit" oryx:fontSize="12"><tspan x="50" y="40" dy="-1">Electrical </tspan><tspan x="50" y="40" dy="11">Approval</tspan></text>          <a id="_DD0FB20E-940C-4829-A453-319521059874pimg" onclick="parent.designeropenintab(&quot;Permit Approval Process.bpmn2&quot;,&quot;default://master@MySpace/Solar-Village-POC/src/main/resources/com/solarvillage/rhpam/poc/process/Permit Approval Process.bpmn2&quot;);" xlink:href="">	 	<g id="_DD0FB20E-940C-4829-A453-319521059874b" oryx:anchors="bottom"> 		<rect id="_DD0FB20E-940C-4829-A453-319521059874frame3" oryx:anchors="bottom" x="44" y="66" width="14" height="14" fill="none" stroke="#000000" stroke-width="1"/> 		<path id="_DD0FB20E-940C-4829-A453-319521059874frame4" oryx:anchors="bottom" fill="none" stroke="#000000" d="M51 68 v10 M 46 73 h10" stroke-width="1"/> 	</g> 	</a> 	<g id="_DD0FB20E-940C-4829-A453-319521059874none"/> 	undefined 	  	undefined 	undefined 	 	 	undefined 	undefined   </g></g><g class="children" style="overflow:hidden"/><g class="edge"/></g><g class="controls"><g class="dockers"/><g class="magnets" transform="translate(480, 60)"><g pointer-events="all" display="none" transform="translate(-7, 12)"><circle cx="8" cy="8" r="4" stroke="none" fill="red" fill-opacity="0.3"/></g><g pointer-events="all" display="none" transform="translate(-7, 32)"><circle cx="8" cy="8" r="4" stroke="none" fill="red" fill-opacity="0.3"/></g><g pointer-events="all" display="none" transform="translate(-7, 52)"><circle cx="8" cy="8" r="4" stroke="none" fill="red" fill-opacity="0.3"/></g><g pointer-events="all" display="none" transform="translate(17, 71)"><circle cx="8" cy="8" r="4" stroke="none" fill="red" fill-opacity="0.3"/></g><g pointer-events="all" display="none" transform="translate(42, 71)"><circle cx="8" cy="8" r="4" stroke="none" fill="red" fill-opacity="0.3"/></g><g pointer-events="all" display="none" transform="translate(67, 71)"><circle cx="8" cy="8" r="4" stroke="none" fill="red" fill-opacity="0.3"/></g><g pointer-events="all" display="none" transform="translate(91, 12)"><circle cx="8" cy="8" r="4" stroke="none" fill="red" fill-opacity="0.3"/></g><g pointer-events="all" display="none" transform="translate(91, 32)"><circle cx="8" cy="8" r="4" stroke="none" fill="red" fill-opacity="0.3"/></g><g pointer-events="all" display="none" transform="translate(91, 52)"><circle cx="8" cy="8" r="4" stroke="none" fill="red" fill-opacity="0.3"/></g><g pointer-events="all" display="none" transform="translate(17, -7)"><circle cx="8" cy="8" r="4" stroke="none" fill="red" fill-opacity="0.3"/></g><g pointer-events="all" display="none" transform="translate(42, -7)"><circle cx="8" cy="8" r="4" stroke="none" fill="red" fill-opacity="0.3"/></g><g pointer-events="all" display="none" transform="translate(67, -7)"><circle cx="8" cy="8" r="4" stroke="none" fill="red" fill-opacity="0.3"/></g><g pointer-events="all" display="none" transform="translate(42, 32)"><circle cx="8" cy="8" r="4" stroke="none" fill="red" fill-opacity="0.3"/></g></g></g></g><g id="_5A5BEE23-C169-4148-97DB-D144CA16F842" bpmn2nodeid="_9B882BCB-8A12-4068-98B6-1047C738A134"><g class="stencils" transform="translate(105, 105)"><g class="me"><g pointer-events="fill" oryx:minimumSize="50 40" id="_5A5BEE23-C169-4148-97DB-D144CA16F842">   	<defs id="_5A5BEE23-C169-4148-97DB-D144CA16F842__5A5BEE23-C169-4148-97DB-D144CA16F842_17"> 		<radialGradient id="_5A5BEE23-C169-4148-97DB-D144CA16F842background" cx="10%" cy="10%" r="100%" fx="10%" fy="10%"> 			<stop offset="0%" stop-color="#ffffff" stop-opacity="1" id="_5A5BEE23-C169-4148-97DB-D144CA16F842__5A5BEE23-C169-4148-97DB-D144CA16F842_18"/> 			<stop id="_5A5BEE23-C169-4148-97DB-D144CA16F842fill_el" offset="100%" stop-color="#fafad2" stop-opacity="1"/> 		</radialGradient> 		<radialGradient id="_5A5BEE23-C169-4148-97DB-D144CA16F842borderbackground" cx="10%" cy="10%" r="100%" fx="10%" fy="10%"> 			<stop offset="0%" stop-color="#ffffff" stop-opacity="1" id="_5A5BEE23-C169-4148-97DB-D144CA16F842__5A5BEE23-C169-4148-97DB-D144CA16F842_19"/> 			<stop id="_5A5BEE23-C169-4148-97DB-D144CA16F842fill_border" offset="100%" stop-color="#000000" stop-opacity="1" stroke="#000000"/> 		</radialGradient> 	</defs> 	 	<rect id="_5A5BEE23-C169-4148-97DB-D144CA16F842text_frame" oryx:anchors="bottom top right left" x="1" y="1" width="94" height="79" rx="10" ry="10" stroke="none" stroke-width="0" fill="none"/> 	<rect id="_5A5BEE23-C169-4148-97DB-D144CA16F842bg_frame" oryx:resize="vertical horizontal" x="0" y="0" width="100" height="80" rx="10" ry="10" stroke="#000000" stroke-width="1" fill="url(#_5A5BEE23-C169-4148-97DB-D144CA16F842background) #ffffcc"/> 		<text font-size="12" id="_5A5BEE23-C169-4148-97DB-D144CA16F842text_name" x="50" y="40" oryx:align="middle center" oryx:fittoelem="text_frame" stroke="black" text-anchor="middle" stroke-width="0pt" letter-spacing="-0.01px" fill="#000000" transform="rotate(0 50 40)" visibility="inherit" oryx:fontSize="12"><tspan x="50" y="40" dy="5">Init</tspan></text>     <g id="_5A5BEE23-C169-4148-97DB-D144CA16F842manualTask" transform="scale(0.7,0.7) translate(8,8)" display="none">     	<path oryx:anchors="top left" id="_5A5BEE23-C169-4148-97DB-D144CA16F842frame" style="opacity:1;fill:none;fill-opacity:1;stroke-width:1" d="M0.5,3.751l4.083-3.25c0,0,11.166,0.083,12.083,0.083s-2.417,2.917-1.5,2.917     s11.667,0,12.584,0c1.166,1.708-0.168,3.167-0.834,3.667s0.875,1.917-1,4.417c-0.75,0.25,0.75,1.875-1.333,3.333     c-1.167,0.583,0.583,1.542-1.25,2.833c-1.167,0-20.833,0.083-20.833,0.083l-2-1.333V3.751z" stroke="#000000"/> 		<path id="_5A5BEE23-C169-4148-97DB-D144CA16F842frame2" oryx:anchors="top left" style="opacity:1;fill:none;stroke-width:2" d="M 13.5 7 L 27 7" stroke="#000000"/> 		<path id="_5A5BEE23-C169-4148-97DB-D144CA16F842frame3" oryx:anchors="top left" style="opacity:1;fill:none;stroke-width:2" d="M 13.5 11 L 26 11" stroke="#000000"/> 		<path id="_5A5BEE23-C169-4148-97DB-D144CA16F842frame4" oryx:anchors="top left" style="opacity:1;fill:none;stroke-width:1.5" d="M 14 14.5 L 25 14.5" stroke="#000000"/> 		<path id="_5A5BEE23-C169-4148-97DB-D144CA16F842frame5" oryx:anchors="top left" style="opacity:1;fill:none;stroke-width:1.5" d="M 8.2 3.1 L 15 3.1" stroke="#000000"/> 	</g> 	 	<g id="_5A5BEE23-C169-4148-97DB-D144CA16F842businessRuleTask" transform="scale(0.7,0.7) translate(8,8)" display="none"> 		<rect id="_5A5BEE23-C169-4148-97DB-D144CA16F842frame6" oryx:anchors="top left" x="0" y="0" width="22" height="4" style="opacity:1;fill:#B3B1B3;fill-opacity:1;" stroke="#000000"/> 		<rect id="_5A5BEE23-C169-4148-97DB-D144CA16F842frame7" oryx:anchors="top left" x="0" y="4" style="opacity:1;fill:none;" width="22" height="12" stroke="#000000"/> 		<path id="_5A5BEE23-C169-4148-97DB-D144CA16F842frame8" oryx:anchors="top left" style="opacity:1;fill:none;" d="M 0 10 L 22 10" stroke="#000000"/> 		<path id="_5A5BEE23-C169-4148-97DB-D144CA16F842frame9" oryx:anchors="top left" style="opacity:1; fill:none;" d="M 7 4 L 7 16" stroke="#000000"/> 	</g> 	 	<g id="_5A5BEE23-C169-4148-97DB-D144CA16F842scriptTask" transform="scale(0.7,0.7) translate(8,8)" display="inherit"> 		<path oryx:anchors="top left" id="_5A5BEE23-C169-4148-97DB-D144CA16F842frame10" style="opacity:1;fill:none;" stroke="#000000" d="M6.402,0.5h14.5c0,0-5.833,2.833-5.833,5.583s4.417,6,4.417,9.167    s-4.167,5.083-4.167,5.083H0.235c0,0,5-2.667,5-5s-4.583-6.75-4.583-9.25S6.402,0.5,6.402,0.5z"/> 		<path oryx:anchors="top left" id="_5A5BEE23-C169-4148-97DB-D144CA16F842frame11" style="opacity:1;fill:none;stroke-width:1.5" d="M 3.5 4.5 L 13.5 4.5" stroke="#000000"/> 		<path oryx:anchors="top left" id="_5A5BEE23-C169-4148-97DB-D144CA16F842frame12" style="opacity:1;fill:none;stroke-width:1.5" d="M 3.8 8.5 L 13.8 8.5" stroke="#000000"/> 		<path oryx:anchors="top left" id="_5A5BEE23-C169-4148-97DB-D144CA16F842frame13" style="opacity:1;fill:none;stroke-width:1.5" d="M 6.3 12.5 L 16.3 12.5" stroke="#000000"/> 		<path oryx:anchors="top left" id="_5A5BEE23-C169-4148-97DB-D144CA16F842frame14" style="opacity:1;fill:none;stroke-width:1.5" d="M 6.5 16.5 L 16.5 16.5" stroke="#000000"/> 	</g> 	 	<g id="_5A5BEE23-C169-4148-97DB-D144CA16F842userTask" transform="scale(0.7,0.7) translate(8,8)" display="none"> 		<path id="_5A5BEE23-C169-4148-97DB-D144CA16F842frame15" oryx:anchors="top left" style="opacity:1;fill:#F4F6F7" stroke="#000000" d="M0.585,24.167h24.083v-7.833c0,0-2.333-3.917-7.083-5.167h-9.25    c-4.417,1.333-7.833,5.75-7.833,5.75L0.585,24.167z"/> 		<path id="_5A5BEE23-C169-4148-97DB-D144CA16F842frame16" oryx:anchors="top left" style="opacity:1;fill:none" d="M 6 20 L 6 24" stroke="#000000"/> 		<path id="_5A5BEE23-C169-4148-97DB-D144CA16F842frame17" oryx:anchors="top left" style="opacity:1;fill:none" d="M 20 20 L 20 24" stroke="#000000"/> 		<circle id="_5A5BEE23-C169-4148-97DB-D144CA16F842frame18" oryx:anchors="top left" fill="black" cx="13.002" cy="5.916" r="5.417" stroke="#000000"/> 		<path id="_5A5BEE23-C169-4148-97DB-D144CA16F842frame19" oryx:anchors="top left" style="opacity:1;fill:#F0EFF0;" stroke="#000000" d="M8.043,7.083c0,0,2.814-2.426,5.376-1.807s4.624-0.693,4.624-0.693    c0.25,1.688,0.042,3.75-1.458,5.584c0,0,1.083,0.75,1.083,1.5s0.125,1.875-1,3s-5.5,1.25-6.75,0S8.668,12.834,8.668,12    s0.583-1.25,1.25-1.917C8.835,9.5,7.419,7.708,8.043,7.083z"/> 	</g> 	 	<g id="_5A5BEE23-C169-4148-97DB-D144CA16F842serviceTask" transform="scale(0.7,0.7) translate(8,8)" display="none"> 		<polygon oryx:anchors="top left" id="_5A5BEE23-C169-4148-97DB-D144CA16F842frame20" style="opacity:1;fill:#ffffff" stroke="#000000" points="15.392,5.064 17.954,2.502 20.347,4.895 17.786,7.455     18.729,9.732 22.353,9.732 22.353,13.115 18.731,13.115 17.788,15.392 20.351,17.955 17.958,20.347 15.397,17.786 13.12,18.729     13.12,22.353 9.737,22.353 9.737,18.731 7.46,17.788 4.897,20.35 2.506,17.958 5.066,15.397 4.124,13.12 0.5,13.12 0.5,9.737     4.121,9.737 5.065,7.461 2.503,4.898 4.895,2.506 7.455,5.066 9.732,4.125 9.732,0.5 13.116,0.5 13.116,4.121 "/> 		<circle oryx:anchors="top left" id="_5A5BEE23-C169-4148-97DB-D144CA16F842frame21" style="opacity:1;fill:none" stroke="#000000" cx="11.427" cy="11.426" r="3.714"/> 		<polygon oryx:anchors="top left" id="_5A5BEE23-C169-4148-97DB-D144CA16F842frame22" style="opacity:1;fill:#ffffff" stroke="#000000" points="21.392,11.064 23.954,8.502 26.347,10.895 23.786,13.455     24.729,15.732 28.353,15.732 28.353,19.115 24.731,19.115 23.788,21.392 26.351,23.955 23.958,26.347 21.397,23.786 19.12,24.729     19.12,28.353 15.737,28.353 15.737,24.731 13.46,23.788 10.897,26.35 8.506,23.958 11.066,21.397 10.124,19.12 6.5,19.12     6.5,15.737 10.121,15.737 11.065,13.461 8.503,10.898 10.895,8.506 13.455,11.066 15.732,10.125 15.732,6.5 19.116,6.5     19.116,10.121 "/> 		<circle oryx:anchors="top left" id="_5A5BEE23-C169-4148-97DB-D144CA16F842frame23" style="opacity:1;fill:none;" stroke="#000000" cx="17.427" cy="17.426" r="3.714"/> 	</g> 	 	<g id="_5A5BEE23-C169-4148-97DB-D144CA16F842sendTask" display="none"> 		<path id="_5A5BEE23-C169-4148-97DB-D144CA16F842stframe24" oryx:anchors="left top" stroke="#FFFFFF" fill="black" stroke-width="1" d="M8,11 L8,21 L24,21 L24,11 L16,17z"/> 		<path id="_5A5BEE23-C169-4148-97DB-D144CA16F842stframe25" oryx:anchors="left top" stroke="#FFFFFF" fill="black" stroke-width="1" d="M7,10 L16,17 L25 10z"/> 	</g> 	 	<g id="_5A5BEE23-C169-4148-97DB-D144CA16F842receiveTask" display="none"> 		<path id="_5A5BEE23-C169-4148-97DB-D144CA16F842frame26" oryx:anchors="left top" stroke="#000000" fill="none" stroke-width="1" d="M8,11 L8,21 L24,21 L24,11z M8,11 L16,17 L24,11"/> 	</g> 	 	<g id="_5A5BEE23-C169-4148-97DB-D144CA16F842none" display="inherit"/>  	<g id="_5A5BEE23-C169-4148-97DB-D144CA16F842sequential" display="none">         <path oryx:anchors="bottom" fill="none" stroke="#000000" stroke-width="2" d="M46,76h10M46,72h10 M46,68h10" id="_5A5BEE23-C169-4148-97DB-D144CA16F842__5A5BEE23-C169-4148-97DB-D144CA16F842_20"/>     </g>   </g></g><g class="children" style="overflow:hidden"/><g class="edge"/></g><g class="controls"><g class="dockers"/><g class="magnets" transform="translate(105, 105)"><g pointer-events="all" display="none" transform="translate(-7, 12)"><circle cx="8" cy="8" r="4" stroke="none" fill="red" fill-opacity="0.3"/></g><g pointer-events="all" display="none" transform="translate(-7, 32)"><circle cx="8" cy="8" r="4" stroke="none" fill="red" fill-opacity="0.3"/></g><g pointer-events="all" display="none" transform="translate(-7, 52)"><circle cx="8" cy="8" r="4" stroke="none" fill="red" fill-opacity="0.3"/></g><g pointer-events="all" display="none" transform="translate(17, 71)"><circle cx="8" cy="8" r="4" stroke="none" fill="red" fill-opacity="0.3"/></g><g pointer-events="all" display="none" transform="translate(42, 71)"><circle cx="8" cy="8" r="4" stroke="none" fill="red" fill-opacity="0.3"/></g><g pointer-events="all" display="none" transform="translate(67, 71)"><circle cx="8" cy="8" r="4" stroke="none" fill="red" fill-opacity="0.3"/></g><g pointer-events="all" display="none" transform="translate(91, 12)"><circle cx="8" cy="8" r="4" stroke="none" fill="red" fill-opacity="0.3"/></g><g pointer-events="all" display="none" transform="translate(91, 32)"><circle cx="8" cy="8" r="4" stroke="none" fill="red" fill-opacity="0.3"/></g><g pointer-events="all" display="none" transform="translate(91, 52)"><circle cx="8" cy="8" r="4" stroke="none" fill="red" fill-opacity="0.3"/></g><g pointer-events="all" display="none" transform="translate(17, -7)"><circle cx="8" cy="8" r="4" stroke="none" fill="red" fill-opacity="0.3"/></g><g pointer-events="all" display="none" transform="translate(42, -7)"><circle cx="8" cy="8" r="4" stroke="none" fill="red" fill-opacity="0.3"/></g><g pointer-events="all" display="none" transform="translate(67, -7)"><circle cx="8" cy="8" r="4" stroke="none" fill="red" fill-opacity="0.3"/></g><g pointer-events="all" display="none" transform="translate(42, 32)"><circle cx="8" cy="8" r="4" stroke="none" fill="red" fill-opacity="0.3"/></g></g></g></g></g><g class="edge"><g id="_B3DE6EFB-A17A-47FB-B95D-70CBC566AFFC" bpmn2nodeid="_0C4B6523-8EB5-4895-BACC-2C3C4EB3BB5C"><g class="stencils"><g class="me"><g pointer-events="painted" bpmn2nodeid="_3B47C8C5-E2B1-4E89-941F-9932BC01DF5A"><path id="_B3DE6EFB-A17A-47FB-B95D-70CBC566AFFC_1" d="M30.188892500145332 176.20277687496366L104.81110749985467 157.54722312503634 " stroke="#000000" fill="none" stroke-width="2" stroke-linecap="round" stroke-linejoin="round" marker-start="url(#_B3DE6EFB-A17A-47FB-B95D-70CBC566AFFCstart)" marker-end="url(#_B3DE6EFB-A17A-47FB-B95D-70CBC566AFFCend)"/></g><text id="_B3DE6EFB-A17A-47FB-B95D-70CBC566AFFCtext_name" font-size="12" x="44.18889250014533" y="162.20277687496366" oryx:edgePosition="startTop" stroke-width="0pt" letter-spacing="-0.01px" fill="#000000" text-anchor="start" transform="rotate(345.96375653207355 30.188892500145332 176.20277687496366)" visibility="inherit" oryx:fontSize="12"/></g><g class="children" style="overflow:hidden"/><g class="edge"/></g><g class="controls"><g class="dockers"/><g class="magnets"/></g></g><g id="_3E43BA02-E7B6-4AD5-9D3B-C668DE9C84C1" bpmn2nodeid="_5CFD7147-884A-4891-AD6A-03B225055B52"><g class="stencils"><g class="me"><g pointer-events="painted" bpmn2nodeid="_E1845505-4220-4455-B56B-4CB9CC7AB3BA"><path id="_3E43BA02-E7B6-4AD5-9D3B-C668DE9C84C1_1" d="M205.79756433848692 138.90429227938156L479.20243566151305 106.09570772061844 " stroke="#000000" fill="none" stroke-width="2" stroke-linecap="round" stroke-linejoin="round" marker-start="url(#_3E43BA02-E7B6-4AD5-9D3B-C668DE9C84C1start)" marker-end="url(#_3E43BA02-E7B6-4AD5-9D3B-C668DE9C84C1end)"/></g><text id="_3E43BA02-E7B6-4AD5-9D3B-C668DE9C84C1text_name" font-size="12" x="219.79756433848692" y="124.90429227938156" oryx:edgePosition="startTop" stroke-width="0pt" letter-spacing="-0.01px" fill="#000000" text-anchor="start" transform="rotate(353.15722658736905 205.79756433848692 138.90429227938156)" visibility="inherit" oryx:fontSize="12"/></g><g class="children" style="overflow:hidden"/><g class="edge"/></g><g class="controls"><g class="dockers"/><g class="magnets"/></g></g><g id="_3C2249B2-79C9-4B2E-A0C4-CADDC00A4395" bpmn2nodeid="_0D38357F-84B1-4155-BD65-C4F77D05AE62"><g class="stencils"><g class="me"><g pointer-events="painted" bpmn2nodeid="_F4AD2078-B6C7-4E58-8CA0-719D6DA71BE4"><path id="_3C2249B2-79C9-4B2E-A0C4-CADDC00A4395_1" d="M536.3414854212649 140.69119811978308L551.7835145787351 239.77755188021692 " stroke="#000000" fill="none" stroke-width="2" stroke-linecap="round" stroke-linejoin="round" marker-start="url(#_3C2249B2-79C9-4B2E-A0C4-CADDC00A4395start)" marker-end="url(#_3C2249B2-79C9-4B2E-A0C4-CADDC00A4395end)"/></g><text id="_3C2249B2-79C9-4B2E-A0C4-CADDC00A4395text_name" font-size="12" x="550.3414854212649" y="126.69119811978308" oryx:edgePosition="startTop" stroke-width="0pt" letter-spacing="-0.01px" fill="#000000" text-anchor="start" transform="rotate(81.14204123637171 536.3414854212649 140.69119811978308)" visibility="inherit" oryx:fontSize="12"/></g><g class="children" style="overflow:hidden"/><g class="edge"/></g><g class="controls"><g class="dockers"/><g class="magnets"/></g></g></g><text id="_962CF0E9-B80E-4D4D-8115-7E11EBA9E0B6" style="stroke-width:1;fill:rgb(177,194,214);font-family:arial;font-weight:bold" font-size="12" onclick="ORYX.Plugins.CanvasTitle.openTextualAnalysis()" onmouseover="ORYX.Plugins.CanvasTitle.addToolTip('_962CF0E9-B80E-4D4D-8115-7E11EBA9E0B6')" transform="translate(10, 20)">Solar Village Order v.1.0 (com.solarvillage.rhpam.poc.process.SolarVillageOrder)</text></g></g></svg>