<svg xmlns="http://www.w3.org/2000/svg" xmlns:oryx="http://oryx-editor.org" id="_4DEB0A8F-EA51-49F1-BC81-B20A2A587096" width="618" height="309" xmlns:xlink="http://www.w3.org/1999/xlink" xmlns:svg="http://www.w3.org/2000/svg"><defs><marker id="_4118900C-CABE-40C2-9CD0-234806BC17FCstart" refX="1" refY="5" markerUnits="userSpaceOnUse" markerWidth="17" markerHeight="11" orient="auto" fill="#000000" stroke="#000000"> 	  		<path id="_4118900C-CABE-40C2-9CD0-234806BC17FCconditional" d="M 0 5 L 8 0 L 16 5 L 8 10 L 0 5" fill="white" stroke="#000000" stroke-width="1" display="none"/> 			<path id="_4118900C-CABE-40C2-9CD0-234806BC17FCdefault" d="M 5 0 L 11 10" fill="white" stroke="#000000" stroke-width="1" display="none"/> 	  	</marker><marker id="_4118900C-CABE-40C2-9CD0-234806BC17FCend" refX="15" refY="6" markerUnits="userSpaceOnUse" markerWidth="15" markerHeight="12" orient="auto" fill="#000000" stroke="#000000"> 	  		<path id="_4118900C-CABE-40C2-9CD0-234806BC17FCframe2" d="M 0 1 L 15 6 L 0 11z" fill="#000000" stroke="#000000" stroke-linejoin="round" stroke-width="2"/> 	  	</marker><marker id="_B01FA68B-452F-4947-9E02-CA457571D339start" refX="1" refY="5" markerUnits="userSpaceOnUse" markerWidth="17" markerHeight="11" orient="auto" fill="#000000" stroke="#000000"> 	  		<path id="_B01FA68B-452F-4947-9E02-CA457571D339conditional" d="M 0 5 L 8 0 L 16 5 L 8 10 L 0 5" fill="white" stroke="#000000" stroke-width="1" display="none"/> 			<path id="_B01FA68B-452F-4947-9E02-CA457571D339default" d="M 5 0 L 11 10" fill="white" stroke="#000000" stroke-width="1" display="none"/> 	  	</marker><marker id="_B01FA68B-452F-4947-9E02-CA457571D339end" refX="15" refY="6" markerUnits="userSpaceOnUse" markerWidth="15" markerHeight="12" orient="auto" fill="#000000" stroke="#000000"> 	  		<path id="_B01FA68B-452F-4947-9E02-CA457571D339frame2" d="M 0 1 L 15 6 L 0 11z" fill="#000000" stroke="#000000" stroke-linejoin="round" stroke-width="2"/> 	  	</marker><marker id="_5835ADF4-00A3-4F98-B764-11C0DF585EACstart" refX="1" refY="5" markerUnits="userSpaceOnUse" markerWidth="17" markerHeight="11" orient="auto" fill="#000000" stroke="#000000"> 	  		<path id="_5835ADF4-00A3-4F98-B764-11C0DF585EACconditional" d="M 0 5 L 8 0 L 16 5 L 8 10 L 0 5" fill="white" stroke="#000000" stroke-width="1" display="none"/> 			<path id="_5835ADF4-00A3-4F98-B764-11C0DF585EACdefault" d="M 5 0 L 11 10" fill="white" stroke="#000000" stroke-width="1" display="none"/> 	  	</marker><marker id="_5835ADF4-00A3-4F98-B764-11C0DF585EACend" refX="15" refY="6" markerUnits="userSpaceOnUse" markerWidth="15" markerHeight="12" orient="auto" fill="#000000" stroke="#000000"> 	  		<path id="_5835ADF4-00A3-4F98-B764-11C0DF585EACframe2" d="M 0 1 L 15 6 L 0 11z" fill="#000000" stroke="#000000" stroke-linejoin="round" stroke-width="2"/> 	  	</marker></defs><g stroke="none" font-family="Verdana, sans-serif" font-size-adjust="none" font-style="normal" font-variant="normal" font-weight="normal" line-heigth="normal" font-size="12"><g class="stencils" transform="translate(25, 16)"><g class="me"/><g class="children"><g id="_86855631-DCD6-4A9B-AFDF-52CE9C54605F" bpmn2nodeid="processStartEvent"><g class="stencils" transform="translate(0, 165)"><g class="me"><g pointer-events="fill" id="_86855631-DCD6-4A9B-AFDF-52CE9C54605F">        <defs id="_86855631-DCD6-4A9B-AFDF-52CE9C54605F__86855631-DCD6-4A9B-AFDF-52CE9C54605F_5"> 		<radialGradient id="_86855631-DCD6-4A9B-AFDF-52CE9C54605Fbackground" cx="10%" cy="10%" r="100%" fx="10%" fy="10%"> 			<stop offset="0%" stop-color="#ffffff" stop-opacity="1" id="_86855631-DCD6-4A9B-AFDF-52CE9C54605F__86855631-DCD6-4A9B-AFDF-52CE9C54605F_6"/> 			<stop id="_86855631-DCD6-4A9B-AFDF-52CE9C54605Ffill_el" offset="100%" stop-color="#9acd32" stop-opacity="1"/> 		</radialGradient> 	</defs> 	     <circle id="_86855631-DCD6-4A9B-AFDF-52CE9C54605Fbg_frame" cx="15" cy="15" r="15" stroke="#000000" fill="url(#_86855631-DCD6-4A9B-AFDF-52CE9C54605Fbackground) white" stroke-width="1" style="stroke-dasharray: 5.5, 3"/>      <circle id="_86855631-DCD6-4A9B-AFDF-52CE9C54605Fframe" cx="15" cy="15" r="15" stroke="#000000" fill="none" stroke-width="1" display="inherit"/>  	<text font-size="11" id="_86855631-DCD6-4A9B-AFDF-52CE9C54605Ftext_name" x="15" y="32" oryx:align="top center" stroke="black" stroke-width="0pt" letter-spacing="-0.01px" fill="#000000" text-anchor="middle" transform="rotate(0 15 32)" visibility="inherit" oryx:fontSize="11"/>   </g></g><g class="children" style="overflow:hidden"/><g class="edge"/></g><g class="controls"><g class="dockers"/><g class="magnets" transform="translate(0, 165)"><g pointer-events="all" display="none" transform="translate(7, 7)"><circle cx="8" cy="8" r="4" stroke="none" fill="red" fill-opacity="0.3"/></g></g></g></g><g id="_241CF019-A4FE-462F-9A85-96CA535B60B8" bpmn2nodeid="_EB682465-FFC1-4881-AA8E-61D45456A43A"><g class="stencils" transform="translate(540, 240)"><g class="me"><g pointer-events="fill" id="_241CF019-A4FE-462F-9A85-96CA535B60B8">      <defs id="_241CF019-A4FE-462F-9A85-96CA535B60B8__241CF019-A4FE-462F-9A85-96CA535B60B8_5"> 		<radialGradient id="_241CF019-A4FE-462F-9A85-96CA535B60B8background" cx="10%" cy="10%" r="100%" fx="10%" fy="10%"> 			<stop offset="0%" stop-color="#ffffff" stop-opacity="1" id="_241CF019-A4FE-462F-9A85-96CA535B60B8__241CF019-A4FE-462F-9A85-96CA535B60B8_6"/> 			<stop id="_241CF019-A4FE-462F-9A85-96CA535B60B8fill_el" offset="100%" stop-color="#ff6347" stop-opacity="1"/> 		</radialGradient> 	</defs> 	     <circle id="_241CF019-A4FE-462F-9A85-96CA535B60B8bg_frame" cx="14" cy="14" r="14" stroke="#000000" fill="url(#_241CF019-A4FE-462F-9A85-96CA535B60B8background) white" stroke-width="3"/> 	<text font-size="11" id="_241CF019-A4FE-462F-9A85-96CA535B60B8text_name" x="14" y="30" oryx:align="top center" stroke="black" stroke-width="0pt" letter-spacing="-0.01px" fill="#000000" text-anchor="middle" transform="rotate(0 14 30)" visibility="inherit" oryx:fontSize="11"/>   </g></g><g class="children" style="overflow:hidden"/><g class="edge"/></g><g class="controls"><g class="dockers"/><g class="magnets" transform="translate(540, 240)"><g pointer-events="all" display="none" transform="translate(6, 6)"><circle cx="8" cy="8" r="4" stroke="none" fill="red" fill-opacity="0.3"/></g></g></g></g><g id="_49284C74-130C-4AF2-9D49-231555EBDF2C" bpmn2nodeid="_9F11D643-3D5D-4099-BFD1-334B1406727C"><g class="stencils" transform="translate(360, 75)"><g class="me"><g pointer-events="fill" oryx:minimumSize="80 60" id="_49284C74-130C-4AF2-9D49-231555EBDF2C">   	<defs id="_49284C74-130C-4AF2-9D49-231555EBDF2C__49284C74-130C-4AF2-9D49-231555EBDF2C_17"> 		<radialGradient id="_49284C74-130C-4AF2-9D49-231555EBDF2Cbackground" cx="10%" cy="10%" r="100%" fx="10%" fy="10%"> 			<stop offset="0%" stop-color="#ffffff" stop-opacity="1" id="_49284C74-130C-4AF2-9D49-231555EBDF2C__49284C74-130C-4AF2-9D49-231555EBDF2C_18"/> 			<stop id="_49284C74-130C-4AF2-9D49-231555EBDF2Cfill_el" offset="100%" stop-color="#fafad2" stop-opacity="1"/> 		</radialGradient> 	</defs> 	<rect id="_49284C74-130C-4AF2-9D49-231555EBDF2Ctext_frame" oryx:anchors="bottom top right left" x="1" y="1" width="94" height="79" rx="10" ry="10" stroke="none" stroke-width="0" fill="none"/> 	<rect id="_49284C74-130C-4AF2-9D49-231555EBDF2Cbg_frame" oryx:anchors="bottom top right left" x="0" y="0" width="100" height="80" rx="10" ry="10" stroke="#000000" stroke-width="1" fill="url(#_49284C74-130C-4AF2-9D49-231555EBDF2Cbackground) #ffffcc"/> 	<rect id="_49284C74-130C-4AF2-9D49-231555EBDF2Cframe" oryx:resize="vertical horizontal" oryx:anchors="bottom top right left" x="0" y="0" width="100" height="80" rx="10" ry="10" stroke="#000000" stroke-width="4" fill="none"/> 	<rect id="_49284C74-130C-4AF2-9D49-231555EBDF2Cframe2" oryx:anchors="top bottom left right" oryx:resize="vertical horizontal" x="2.5" y="2.5" width="95" height="75" rx="8" ry="8" stroke="#000000" stroke-width="1" fill="none"/>     	<text font-size="12" id="_49284C74-130C-4AF2-9D49-231555EBDF2Ctext_name" x="50" y="40" oryx:align="middle center" oryx:fittoelem="text_frame" stroke="black" stroke-width="0pt" letter-spacing="-0.01px" fill="#000000" text-anchor="middle" transform="rotate(0 50 40)" visibility="inherit" oryx:fontSize="12"><tspan x="50" y="40" dy="-1" id="ext-gen1640">Electrical </tspan><tspan x="50" y="40" dy="11" id="ext-gen1639">Approval</tspan></text>          <a id="_49284C74-130C-4AF2-9D49-231555EBDF2Cpimg" onclick="parent.designeropenintab(&quot;Permit Approval Process.bpmn2&quot;,&quot;default://master@MySpace/Solar-Village-POC/src/main/resources/com/solarvillage/rhpam/poc/process/Permit Approval Process.bpmn2&quot;);" xlink:href="">	 	<g id="_49284C74-130C-4AF2-9D49-231555EBDF2Cb" oryx:anchors="bottom"> 		<rect id="_49284C74-130C-4AF2-9D49-231555EBDF2Cframe3" oryx:anchors="bottom" x="44" y="66" width="14" height="14" fill="none" stroke="#000000" stroke-width="1"/> 		<path id="_49284C74-130C-4AF2-9D49-231555EBDF2Cframe4" oryx:anchors="bottom" fill="none" stroke="#000000" d="M51 68 v10 M 46 73 h10" stroke-width="1"/> 	</g> 	</a> 	<g id="_49284C74-130C-4AF2-9D49-231555EBDF2Cnone"/> 	undefined 	  	undefined 	undefined 	 	 	undefined 	undefined   </g></g><g class="children" style="overflow:hidden"/><g class="edge"/></g><g class="controls"><g class="dockers"/><g class="magnets" transform="translate(360, 75)"><g pointer-events="all" display="none" transform="translate(-7, 12)"><circle cx="8" cy="8" r="4" stroke="none" fill="red" fill-opacity="0.3"/></g><g pointer-events="all" display="none" transform="translate(-7, 32)"><circle cx="8" cy="8" r="4" stroke="none" fill="red" fill-opacity="0.3"/></g><g pointer-events="all" display="none" transform="translate(-7, 52)"><circle cx="8" cy="8" r="4" stroke="none" fill="red" fill-opacity="0.3"/></g><g pointer-events="all" display="none" transform="translate(17, 71)"><circle cx="8" cy="8" r="4" stroke="none" fill="red" fill-opacity="0.3"/></g><g pointer-events="all" display="none" transform="translate(42, 71)"><circle cx="8" cy="8" r="4" stroke="none" fill="red" fill-opacity="0.3"/></g><g pointer-events="all" display="none" transform="translate(67, 71)"><circle cx="8" cy="8" r="4" stroke="none" fill="red" fill-opacity="0.3"/></g><g pointer-events="all" display="none" transform="translate(91, 12)"><circle cx="8" cy="8" r="4" stroke="none" fill="red" fill-opacity="0.3"/></g><g pointer-events="all" display="none" transform="translate(91, 32)"><circle cx="8" cy="8" r="4" stroke="none" fill="red" fill-opacity="0.3"/></g><g pointer-events="all" display="none" transform="translate(91, 52)"><circle cx="8" cy="8" r="4" stroke="none" fill="red" fill-opacity="0.3"/></g><g pointer-events="all" display="none" transform="translate(17, -7)"><circle cx="8" cy="8" r="4" stroke="none" fill="red" fill-opacity="0.3"/></g><g pointer-events="all" display="none" transform="translate(42, -7)"><circle cx="8" cy="8" r="4" stroke="none" fill="red" fill-opacity="0.3"/></g><g pointer-events="all" display="none" transform="translate(67, -7)"><circle cx="8" cy="8" r="4" stroke="none" fill="red" fill-opacity="0.3"/></g><g pointer-events="all" display="none" transform="translate(42, 32)"><circle cx="8" cy="8" r="4" stroke="none" fill="red" fill-opacity="0.3"/></g></g></g></g><g id="_F020CA01-2895-4004-84BB-0BF207094D0F" bpmn2nodeid="_9B882BCB-8A12-4068-98B6-1047C738A134"><g class="stencils" transform="translate(105, 105)"><g class="me"><g pointer-events="fill" oryx:minimumSize="50 40" id="_F020CA01-2895-4004-84BB-0BF207094D0F">   	<defs id="_F020CA01-2895-4004-84BB-0BF207094D0F__F020CA01-2895-4004-84BB-0BF207094D0F_17"> 		<radialGradient id="_F020CA01-2895-4004-84BB-0BF207094D0Fbackground" cx="10%" cy="10%" r="100%" fx="10%" fy="10%"> 			<stop offset="0%" stop-color="#ffffff" stop-opacity="1" id="_F020CA01-2895-4004-84BB-0BF207094D0F__F020CA01-2895-4004-84BB-0BF207094D0F_18"/> 			<stop id="_F020CA01-2895-4004-84BB-0BF207094D0Ffill_el" offset="100%" stop-color="#fafad2" stop-opacity="1"/> 		</radialGradient> 		<radialGradient id="_F020CA01-2895-4004-84BB-0BF207094D0Fborderbackground" cx="10%" cy="10%" r="100%" fx="10%" fy="10%"> 			<stop offset="0%" stop-color="#ffffff" stop-opacity="1" id="_F020CA01-2895-4004-84BB-0BF207094D0F__F020CA01-2895-4004-84BB-0BF207094D0F_19"/> 			<stop id="_F020CA01-2895-4004-84BB-0BF207094D0Ffill_border" offset="100%" stop-color="#000000" stop-opacity="1" stroke="#000000"/> 		</radialGradient> 	</defs> 	 	<rect id="_F020CA01-2895-4004-84BB-0BF207094D0Ftext_frame" oryx:anchors="bottom top right left" x="1" y="1" width="94" height="79" rx="10" ry="10" stroke="none" stroke-width="0" fill="none"/> 	<rect id="_F020CA01-2895-4004-84BB-0BF207094D0Fbg_frame" oryx:resize="vertical horizontal" x="0" y="0" width="100" height="80" rx="10" ry="10" stroke="#000000" stroke-width="1" fill="url(#_F020CA01-2895-4004-84BB-0BF207094D0Fbackground) #ffffcc"/> 		<text font-size="12" id="_F020CA01-2895-4004-84BB-0BF207094D0Ftext_name" x="50" y="40" oryx:align="middle center" oryx:fittoelem="text_frame" stroke="black" text-anchor="middle" stroke-width="0pt" letter-spacing="-0.01px" fill="#000000" transform="rotate(0 50 40)" visibility="inherit" oryx:fontSize="12"><tspan x="50" y="40" dy="5">Init</tspan></text>     <g id="_F020CA01-2895-4004-84BB-0BF207094D0FmanualTask" transform="scale(0.7,0.7) translate(8,8)" display="none">     	<path oryx:anchors="top left" id="_F020CA01-2895-4004-84BB-0BF207094D0Fframe" style="opacity:1;fill:none;fill-opacity:1;stroke-width:1" d="M0.5,3.751l4.083-3.25c0,0,11.166,0.083,12.083,0.083s-2.417,2.917-1.5,2.917     s11.667,0,12.584,0c1.166,1.708-0.168,3.167-0.834,3.667s0.875,1.917-1,4.417c-0.75,0.25,0.75,1.875-1.333,3.333     c-1.167,0.583,0.583,1.542-1.25,2.833c-1.167,0-20.833,0.083-20.833,0.083l-2-1.333V3.751z" stroke="#000000"/> 		<path id="_F020CA01-2895-4004-84BB-0BF207094D0Fframe2" oryx:anchors="top left" style="opacity:1;fill:none;stroke-width:2" d="M 13.5 7 L 27 7" stroke="#000000"/> 		<path id="_F020CA01-2895-4004-84BB-0BF207094D0Fframe3" oryx:anchors="top left" style="opacity:1;fill:none;stroke-width:2" d="M 13.5 11 L 26 11" stroke="#000000"/> 		<path id="_F020CA01-2895-4004-84BB-0BF207094D0Fframe4" oryx:anchors="top left" style="opacity:1;fill:none;stroke-width:1.5" d="M 14 14.5 L 25 14.5" stroke="#000000"/> 		<path id="_F020CA01-2895-4004-84BB-0BF207094D0Fframe5" oryx:anchors="top left" style="opacity:1;fill:none;stroke-width:1.5" d="M 8.2 3.1 L 15 3.1" stroke="#000000"/> 	</g> 	 	<g id="_F020CA01-2895-4004-84BB-0BF207094D0FbusinessRuleTask" transform="scale(0.7,0.7) translate(8,8)" display="none"> 		<rect id="_F020CA01-2895-4004-84BB-0BF207094D0Fframe6" oryx:anchors="top left" x="0" y="0" width="22" height="4" style="opacity:1;fill:#B3B1B3;fill-opacity:1;" stroke="#000000"/> 		<rect id="_F020CA01-2895-4004-84BB-0BF207094D0Fframe7" oryx:anchors="top left" x="0" y="4" style="opacity:1;fill:none;" width="22" height="12" stroke="#000000"/> 		<path id="_F020CA01-2895-4004-84BB-0BF207094D0Fframe8" oryx:anchors="top left" style="opacity:1;fill:none;" d="M 0 10 L 22 10" stroke="#000000"/> 		<path id="_F020CA01-2895-4004-84BB-0BF207094D0Fframe9" oryx:anchors="top left" style="opacity:1; fill:none;" d="M 7 4 L 7 16" stroke="#000000"/> 	</g> 	 	<g id="_F020CA01-2895-4004-84BB-0BF207094D0FscriptTask" transform="scale(0.7,0.7) translate(8,8)" display="inherit"> 		<path oryx:anchors="top left" id="_F020CA01-2895-4004-84BB-0BF207094D0Fframe10" style="opacity:1;fill:none;" stroke="#000000" d="M6.402,0.5h14.5c0,0-5.833,2.833-5.833,5.583s4.417,6,4.417,9.167    s-4.167,5.083-4.167,5.083H0.235c0,0,5-2.667,5-5s-4.583-6.75-4.583-9.25S6.402,0.5,6.402,0.5z"/> 		<path oryx:anchors="top left" id="_F020CA01-2895-4004-84BB-0BF207094D0Fframe11" style="opacity:1;fill:none;stroke-width:1.5" d="M 3.5 4.5 L 13.5 4.5" stroke="#000000"/> 		<path oryx:anchors="top left" id="_F020CA01-2895-4004-84BB-0BF207094D0Fframe12" style="opacity:1;fill:none;stroke-width:1.5" d="M 3.8 8.5 L 13.8 8.5" stroke="#000000"/> 		<path oryx:anchors="top left" id="_F020CA01-2895-4004-84BB-0BF207094D0Fframe13" style="opacity:1;fill:none;stroke-width:1.5" d="M 6.3 12.5 L 16.3 12.5" stroke="#000000"/> 		<path oryx:anchors="top left" id="_F020CA01-2895-4004-84BB-0BF207094D0Fframe14" style="opacity:1;fill:none;stroke-width:1.5" d="M 6.5 16.5 L 16.5 16.5" stroke="#000000"/> 	</g> 	 	<g id="_F020CA01-2895-4004-84BB-0BF207094D0FuserTask" transform="scale(0.7,0.7) translate(8,8)" display="none"> 		<path id="_F020CA01-2895-4004-84BB-0BF207094D0Fframe15" oryx:anchors="top left" style="opacity:1;fill:#F4F6F7" stroke="#000000" d="M0.585,24.167h24.083v-7.833c0,0-2.333-3.917-7.083-5.167h-9.25    c-4.417,1.333-7.833,5.75-7.833,5.75L0.585,24.167z"/> 		<path id="_F020CA01-2895-4004-84BB-0BF207094D0Fframe16" oryx:anchors="top left" style="opacity:1;fill:none" d="M 6 20 L 6 24" stroke="#000000"/> 		<path id="_F020CA01-2895-4004-84BB-0BF207094D0Fframe17" oryx:anchors="top left" style="opacity:1;fill:none" d="M 20 20 L 20 24" stroke="#000000"/> 		<circle id="_F020CA01-2895-4004-84BB-0BF207094D0Fframe18" oryx:anchors="top left" fill="black" cx="13.002" cy="5.916" r="5.417" stroke="#000000"/> 		<path id="_F020CA01-2895-4004-84BB-0BF207094D0Fframe19" oryx:anchors="top left" style="opacity:1;fill:#F0EFF0;" stroke="#000000" d="M8.043,7.083c0,0,2.814-2.426,5.376-1.807s4.624-0.693,4.624-0.693    c0.25,1.688,0.042,3.75-1.458,5.584c0,0,1.083,0.75,1.083,1.5s0.125,1.875-1,3s-5.5,1.25-6.75,0S8.668,12.834,8.668,12    s0.583-1.25,1.25-1.917C8.835,9.5,7.419,7.708,8.043,7.083z"/> 	</g> 	 	<g id="_F020CA01-2895-4004-84BB-0BF207094D0FserviceTask" transform="scale(0.7,0.7) translate(8,8)" display="none"> 		<polygon oryx:anchors="top left" id="_F020CA01-2895-4004-84BB-0BF207094D0Fframe20" style="opacity:1;fill:#ffffff" stroke="#000000" points="15.392,5.064 17.954,2.502 20.347,4.895 17.786,7.455     18.729,9.732 22.353,9.732 22.353,13.115 18.731,13.115 17.788,15.392 20.351,17.955 17.958,20.347 15.397,17.786 13.12,18.729     13.12,22.353 9.737,22.353 9.737,18.731 7.46,17.788 4.897,20.35 2.506,17.958 5.066,15.397 4.124,13.12 0.5,13.12 0.5,9.737     4.121,9.737 5.065,7.461 2.503,4.898 4.895,2.506 7.455,5.066 9.732,4.125 9.732,0.5 13.116,0.5 13.116,4.121 "/> 		<circle oryx:anchors="top left" id="_F020CA01-2895-4004-84BB-0BF207094D0Fframe21" style="opacity:1;fill:none" stroke="#000000" cx="11.427" cy="11.426" r="3.714"/> 		<polygon oryx:anchors="top left" id="_F020CA01-2895-4004-84BB-0BF207094D0Fframe22" style="opacity:1;fill:#ffffff" stroke="#000000" points="21.392,11.064 23.954,8.502 26.347,10.895 23.786,13.455     24.729,15.732 28.353,15.732 28.353,19.115 24.731,19.115 23.788,21.392 26.351,23.955 23.958,26.347 21.397,23.786 19.12,24.729     19.12,28.353 15.737,28.353 15.737,24.731 13.46,23.788 10.897,26.35 8.506,23.958 11.066,21.397 10.124,19.12 6.5,19.12     6.5,15.737 10.121,15.737 11.065,13.461 8.503,10.898 10.895,8.506 13.455,11.066 15.732,10.125 15.732,6.5 19.116,6.5     19.116,10.121 "/> 		<circle oryx:anchors="top left" id="_F020CA01-2895-4004-84BB-0BF207094D0Fframe23" style="opacity:1;fill:none;" stroke="#000000" cx="17.427" cy="17.426" r="3.714"/> 	</g> 	 	<g id="_F020CA01-2895-4004-84BB-0BF207094D0FsendTask" display="none"> 		<path id="_F020CA01-2895-4004-84BB-0BF207094D0Fstframe24" oryx:anchors="left top" stroke="#FFFFFF" fill="black" stroke-width="1" d="M8,11 L8,21 L24,21 L24,11 L16,17z"/> 		<path id="_F020CA01-2895-4004-84BB-0BF207094D0Fstframe25" oryx:anchors="left top" stroke="#FFFFFF" fill="black" stroke-width="1" d="M7,10 L16,17 L25 10z"/> 	</g> 	 	<g id="_F020CA01-2895-4004-84BB-0BF207094D0FreceiveTask" display="none"> 		<path id="_F020CA01-2895-4004-84BB-0BF207094D0Fframe26" oryx:anchors="left top" stroke="#000000" fill="none" stroke-width="1" d="M8,11 L8,21 L24,21 L24,11z M8,11 L16,17 L24,11"/> 	</g> 	 	<g id="_F020CA01-2895-4004-84BB-0BF207094D0Fnone" display="inherit"/>  	<g id="_F020CA01-2895-4004-84BB-0BF207094D0Fsequential" display="none">         <path oryx:anchors="bottom" fill="none" stroke="#000000" stroke-width="2" d="M46,76h10M46,72h10 M46,68h10" id="_F020CA01-2895-4004-84BB-0BF207094D0F__F020CA01-2895-4004-84BB-0BF207094D0F_20"/>     </g>   </g></g><g class="children" style="overflow:hidden"/><g class="edge"/></g><g class="controls"><g class="dockers"/><g class="magnets" transform="translate(105, 105)"><g pointer-events="all" display="none" transform="translate(-7, 12)"><circle cx="8" cy="8" r="4" stroke="none" fill="red" fill-opacity="0.3"/></g><g pointer-events="all" display="none" transform="translate(-7, 32)"><circle cx="8" cy="8" r="4" stroke="none" fill="red" fill-opacity="0.3"/></g><g pointer-events="all" display="none" transform="translate(-7, 52)"><circle cx="8" cy="8" r="4" stroke="none" fill="red" fill-opacity="0.3"/></g><g pointer-events="all" display="none" transform="translate(17, 71)"><circle cx="8" cy="8" r="4" stroke="none" fill="red" fill-opacity="0.3"/></g><g pointer-events="all" display="none" transform="translate(42, 71)"><circle cx="8" cy="8" r="4" stroke="none" fill="red" fill-opacity="0.3"/></g><g pointer-events="all" display="none" transform="translate(67, 71)"><circle cx="8" cy="8" r="4" stroke="none" fill="red" fill-opacity="0.3"/></g><g pointer-events="all" display="none" transform="translate(91, 12)"><circle cx="8" cy="8" r="4" stroke="none" fill="red" fill-opacity="0.3"/></g><g pointer-events="all" display="none" transform="translate(91, 32)"><circle cx="8" cy="8" r="4" stroke="none" fill="red" fill-opacity="0.3"/></g><g pointer-events="all" display="none" transform="translate(91, 52)"><circle cx="8" cy="8" r="4" stroke="none" fill="red" fill-opacity="0.3"/></g><g pointer-events="all" display="none" transform="translate(17, -7)"><circle cx="8" cy="8" r="4" stroke="none" fill="red" fill-opacity="0.3"/></g><g pointer-events="all" display="none" transform="translate(42, -7)"><circle cx="8" cy="8" r="4" stroke="none" fill="red" fill-opacity="0.3"/></g><g pointer-events="all" display="none" transform="translate(67, -7)"><circle cx="8" cy="8" r="4" stroke="none" fill="red" fill-opacity="0.3"/></g><g pointer-events="all" display="none" transform="translate(42, 32)"><circle cx="8" cy="8" r="4" stroke="none" fill="red" fill-opacity="0.3"/></g></g></g></g></g><g class="edge"><g id="_4118900C-CABE-40C2-9CD0-234806BC17FC" bpmn2nodeid="_0C4B6523-8EB5-4895-BACC-2C3C4EB3BB5C"><g class="stencils"><g class="me"><g pointer-events="painted" bpmn2nodeid="_64B61A68-2704-4865-9169-CA19DD6B74B2"><path id="_4118900C-CABE-40C2-9CD0-234806BC17FC_1" d="M29.44115810620306 174.44570842069112L104.35571689379694 145.63241657930888 " stroke="#000000" fill="none" stroke-width="2" stroke-linecap="round" stroke-linejoin="round" marker-start="url(#_4118900C-CABE-40C2-9CD0-234806BC17FCstart)" marker-end="url(#_4118900C-CABE-40C2-9CD0-234806BC17FCend)"/></g><text id="_4118900C-CABE-40C2-9CD0-234806BC17FCtext_name" font-size="12" x="43.44115810620306" y="160.44570842069112" oryx:edgePosition="startTop" stroke-width="0pt" letter-spacing="-0.01px" fill="#000000" text-anchor="start" transform="rotate(338.9624889745782 29.44115810620306 174.44570842069112)" visibility="inherit" oryx:fontSize="12"/></g><g class="children" style="overflow:hidden"/><g class="edge"/></g><g class="controls"><g class="dockers"/><g class="magnets"/></g></g><g id="_B01FA68B-452F-4947-9E02-CA457571D339" bpmn2nodeid="_5CFD7147-884A-4891-AD6A-03B225055B52"><g class="stencils"><g class="me"><g pointer-events="painted" bpmn2nodeid="_5CFD7147-884A-4891-AD6A-03B225055B52"><path id="_B01FA68B-452F-4947-9E02-CA457571D339_1" d="M205.79783810432286 139.02378375243262L359.20216189567714 120.9762162475674 " stroke="#000000" fill="none" stroke-width="2" stroke-linecap="round" stroke-linejoin="round" marker-start="url(#_B01FA68B-452F-4947-9E02-CA457571D339start)" marker-end="url(#_B01FA68B-452F-4947-9E02-CA457571D339end)"/></g><text id="_B01FA68B-452F-4947-9E02-CA457571D339text_name" font-size="12" x="219.79783810432286" y="125.02378375243262" oryx:edgePosition="startTop" stroke-width="0pt" letter-spacing="-0.01px" fill="#000000" text-anchor="start" transform="rotate(353.2901631922431 205.79783810432286 139.02378375243262)" visibility="inherit" oryx:fontSize="12"/></g><g class="children" style="overflow:hidden"/><g class="edge"/></g><g class="controls"><g class="dockers"/><g class="magnets"/></g></g><g id="_5835ADF4-00A3-4F98-B764-11C0DF585EAC" bpmn2nodeid="_0D38357F-84B1-4155-BD65-C4F77D05AE62"><g class="stencils"><g class="me"><g pointer-events="painted" bpmn2nodeid="_0D38357F-84B1-4155-BD65-C4F77D05AE62"><path id="_5835ADF4-00A3-4F98-B764-11C0DF585EAC_1" d="M451.7819875476185 155.33122409110396L543.7180124523815 244.07502590889604 " stroke="#000000" fill="none" stroke-width="2" stroke-linecap="round" stroke-linejoin="round" marker-start="url(#_5835ADF4-00A3-4F98-B764-11C0DF585EACstart)" marker-end="url(#_5835ADF4-00A3-4F98-B764-11C0DF585EACend)"/></g><text id="_5835ADF4-00A3-4F98-B764-11C0DF585EACtext_name" font-size="12" x="465.7819875476185" y="141.33122409110396" oryx:edgePosition="startTop" stroke-width="0pt" letter-spacing="-0.01px" fill="#000000" text-anchor="start" transform="rotate(43.98781238601754 451.7819875476185 155.33122409110396)" visibility="inherit" oryx:fontSize="12"/></g><g class="children" style="overflow:hidden"/><g class="edge"/></g><g class="controls"><g class="dockers"/><g class="magnets"/></g></g></g><text id="_87343A34-1AA0-4B65-AFFC-FC65AF6A1254" style="stroke-width:1;fill:rgb(177,194,214);font-family:arial;font-weight:bold" font-size="12" onclick="ORYX.Plugins.CanvasTitle.openTextualAnalysis()" onmouseover="ORYX.Plugins.CanvasTitle.addToolTip('_87343A34-1AA0-4B65-AFFC-FC65AF6A1254')" transform="translate(10, 20)">Solar Village Order v.1.0 (com.solarvillage.rhpam.poc.process.SolarVillageOrder)</text></g></g></svg>