<svg version="1.1" xmlns="http://www.w3.org/2000/svg" xmlns:xlink="http://www.w3.org/1999/xlink" width="2815" height="1415"><defs/><g transform="matrix(1,0,0,1,0,0)"><g><g><path fill="none" stroke="#d3d3d3" paint-order="fill stroke markers" d=" M 0 0 L 2800 0 L 2800 1400 L 0 1400 L 0 0 Z Z" stroke-miterlimit="10" stroke-opacity="0.8" stroke-dasharray=""/></g><g id="_81256E72-2BFE-49C4-A22D-E39C49588B15" bpmn2nodeid="_81256E72-2BFE-49C4-A22D-E39C49588B15" transform="matrix(1,0,0,1,100,100)"><g><path fill="none" stroke="none"/></g><g transform="matrix(0.125,0,0,0.125,0,0)"><g transform="matrix(1,0,0,1,0,0)"><path fill="#e8fae6" stroke="none" id="_81256E72-2BFE-49C4-A22D-E39C49588B15?shapeType=BACKGROUND" paint-order="stroke fill markers" d=" M 0 0 M 444 224 C 444 263.9 434.2 300.8 414.4 334.5 C 394.7 368.2 368 394.9 334.4 414.5 C 300.79999999999995 434.1 263.9 444 224 444 C 184.10000000000002 444 147.2 434.2 113.5 414.4 C 79.8 394.7 53.1 368 33.5 334.4 C 13.899999999999999 300.79999999999995 4 263.9 4 224 C 4 184.10000000000002 13.8 147.2 33.6 113.5 C 53.400000000000006 79.80000000000001 80.1 53.1 113.6 33.5 C 147.1 13.899999999999999 184.1 4 224 4 C 263.9 4 300.8 13.8 334.5 33.6 C 368.2 53.400000000000006 394.9 80.1 414.5 113.6 C 434.1 147.1 444 184.1 444 224 Z"/></g><g><g transform="matrix(1,0,0,1,0,0)"><g transform="matrix(1,0,0,1,0,0)"><path fill="#4aa241" stroke="none" id="_81256E72-2BFE-49C4-A22D-E39C49588B15?shapeType=BORDER&amp;renderType=FILL" paint-order="stroke fill markers" d=" M 0 0 M 224 0 C 100.3 0 0 100.3 0 224 C 0 347.7 100.3 448 224 448 C 347.7 448 448 347.7 448 224 C 448 100.30000000000001 347.7 0 224 0 Z M 0 0 M 224 432 C 109.1 432 16 338.9 16 224 C 16 109.10000000000002 109.1 16 224 16 C 338.9 16 432 109.1 432 224 C 432 338.9 338.9 432 224 432 Z"/></g></g></g></g><g transform="matrix(1,0,0,1,28,56)"><g/></g></g><g transform="matrix(1,0,0,1,100,100)"/><g id="_9725A30F-B4B9-4D27-A73B-F94D222DEFBE" bpmn2nodeid="_9725A30F-B4B9-4D27-A73B-F94D222DEFBE" transform="matrix(1,0,0,1,445,109)"><g><path fill="none" stroke="none"/></g><g transform="matrix(1,0,0,1,0,0)"><path fill="#ffffff" stroke="none" id="_9725A30F-B4B9-4D27-A73B-F94D222DEFBE?shapeType=BACKGROUND" paint-order="stroke fill markers" d=" M 5 0 L 645 0 L 645 0 A 5 5 0 0 1 650 5 L 650 245 L 650 245 A 5 5 0 0 1 645 250 L 5 250 L 5 250 A 5 5 0 0 1 0 245 L 0 5 L 0 5.000000000000001 A 5 5 0 0 1 4.999999999999999 0 Z"/></g><g transform="matrix(1,0,0,1,0,0)"><path fill="none" stroke="#393f44" id="_9725A30F-B4B9-4D27-A73B-F94D222DEFBE?shapeType=BORDER&amp;renderType=STROKE" paint-order="fill stroke markers" d=" M 5 0 L 645 0 L 645 0 A 5 5 0 0 1 650 5 L 650 245 L 650 245 A 5 5 0 0 1 645 250 L 5 250 L 5 250 A 5 5 0 0 1 0 245 L 0 5 L 0 5.000000000000001 A 5 5 0 0 1 4.999999999999999 0 Z" stroke-miterlimit="10" stroke-width="1.5" stroke-dasharray=""/></g><g transform="matrix(1,0,0,1,29.69999999999999,17)"><g transform="matrix(0.05,0,0,0.05,285,209)"><g transform="matrix(1,0,0,1,0,0)"><path fill="#000000" stroke="#000000" id="_9725A30F-B4B9-4D27-A73B-F94D222DEFBEundefined" paint-order="fill stroke markers" d=" M 0 0 M 92 44 L 92 468 C 92 474.6 86.6 480 80 480 L 48 480 C 41.4 480 36 474.6 36 468 L 36 44 C 36 37.4 41.4 32 48 32 L 80 32 C 86.6 32 92 37.4 92 44 Z M 0 0 M 252 44 L 252 468 C 252 474.6 246.6 480 240 480 L 208 480 C 201.4 480 196 474.6 196 468 L 196 44 C 196 37.4 201.4 32 208 32 L 240 32 C 246.6 32 252 37.4 252 44 Z M 0 0 M 412 44 L 412 468 C 412 474.6 406.6 480 400 480 L 368 480 C 361.4 480 356 474.6 356 468 L 356 44 C 356 37.4 361.4 32 368 32 L 400 32 C 406.6 32 412 37.4 412 44 Z" stroke-miterlimit="10" stroke-dasharray=""/></g></g></g><g transform="matrix(1,0,0,1,325,0)"><g><text fill="#000000" stroke="none" font-family="Open Sans" font-size="12pt" font-style="normal" font-weight="normal" text-decoration="normal" x="0" y="12" text-anchor="middle" dominant-baseline="alphabetic">Permit</text><text fill="#000000" stroke="none" font-family="Open Sans" font-size="12pt" font-style="normal" font-weight="normal" text-decoration="normal" x="0" y="27" text-anchor="middle" dominant-baseline="alphabetic">sub</text><text fill="#000000" stroke="none" font-family="Open Sans" font-size="12pt" font-style="normal" font-weight="normal" text-decoration="normal" x="0" y="42" text-anchor="middle" dominant-baseline="alphabetic" id="_9725A30F-B4B9-4D27-A73B-F94D222DEFBEundefined">Process</text><path fill="none" stroke="none"/><text fill="none" stroke="#393f44" font-family="Open Sans" font-size="12pt" font-style="normal" font-weight="normal" text-decoration="normal" x="0" y="12" text-anchor="middle" dominant-baseline="alphabetic" stroke-miterlimit="10" stroke-dasharray="">Permit</text><path fill="none" stroke="none"/><text fill="none" stroke="#393f44" font-family="Open Sans" font-size="12pt" font-style="normal" font-weight="normal" text-decoration="normal" x="0" y="27" text-anchor="middle" dominant-baseline="alphabetic" stroke-miterlimit="10" stroke-dasharray="">sub</text><path fill="none" stroke="none"/><text fill="none" stroke="#393f44" font-family="Open Sans" font-size="12pt" font-style="normal" font-weight="normal" text-decoration="normal" x="0" y="42" text-anchor="middle" dominant-baseline="alphabetic" stroke-miterlimit="10" stroke-dasharray="">Process</text></g></g></g><g id="_9725A30F-B4B9-4D27-A73B-F94D222DEFBE" bpmn2nodeid="_9725A30F-B4B9-4D27-A73B-F94D222DEFBE" transform="matrix(1,0,0,1,445,109)"><g><path fill="none" stroke="none"/></g><g transform="matrix(1,0,0,1,0,0)"><path fill="#ffffff" stroke="none" id="_9725A30F-B4B9-4D27-A73B-F94D222DEFBE?shapeType=BACKGROUND" paint-order="stroke fill markers" d=" M 5 0 L 645 0 L 645 0 A 5 5 0 0 1 650 5 L 650 245 L 650 245 A 5 5 0 0 1 645 250 L 5 250 L 5 250 A 5 5 0 0 1 0 245 L 0 5 L 0 5.000000000000001 A 5 5 0 0 1 4.999999999999999 0 Z"/></g><g transform="matrix(1,0,0,1,0,0)"><path fill="none" stroke="#393f44" id="_9725A30F-B4B9-4D27-A73B-F94D222DEFBE?shapeType=BORDER&amp;renderType=STROKE" paint-order="fill stroke markers" d=" M 5 0 L 645 0 L 645 0 A 5 5 0 0 1 650 5 L 650 245 L 650 245 A 5 5 0 0 1 645 250 L 5 250 L 5 250 A 5 5 0 0 1 0 245 L 0 5 L 0 5.000000000000001 A 5 5 0 0 1 4.999999999999999 0 Z" stroke-miterlimit="10" stroke-width="1.5" stroke-dasharray=""/></g><g transform="matrix(1,0,0,1,29.69999999999999,17)"><g transform="matrix(0.05,0,0,0.05,285,209)"><g transform="matrix(1,0,0,1,0,0)"><path fill="#000000" stroke="#000000" id="_9725A30F-B4B9-4D27-A73B-F94D222DEFBEundefined" paint-order="fill stroke markers" d=" M 0 0 M 92 44 L 92 468 C 92 474.6 86.6 480 80 480 L 48 480 C 41.4 480 36 474.6 36 468 L 36 44 C 36 37.4 41.4 32 48 32 L 80 32 C 86.6 32 92 37.4 92 44 Z M 0 0 M 252 44 L 252 468 C 252 474.6 246.6 480 240 480 L 208 480 C 201.4 480 196 474.6 196 468 L 196 44 C 196 37.4 201.4 32 208 32 L 240 32 C 246.6 32 252 37.4 252 44 Z M 0 0 M 412 44 L 412 468 C 412 474.6 406.6 480 400 480 L 368 480 C 361.4 480 356 474.6 356 468 L 356 44 C 356 37.4 361.4 32 368 32 L 400 32 C 406.6 32 412 37.4 412 44 Z" stroke-miterlimit="10" stroke-dasharray=""/></g></g></g><g transform="matrix(1,0,0,1,325,0)"><g><text fill="#000000" stroke="none" font-family="Open Sans" font-size="12pt" font-style="normal" font-weight="normal" text-decoration="normal" x="0" y="12" text-anchor="middle" dominant-baseline="alphabetic">Permit</text><text fill="#000000" stroke="none" font-family="Open Sans" font-size="12pt" font-style="normal" font-weight="normal" text-decoration="normal" x="0" y="27" text-anchor="middle" dominant-baseline="alphabetic">sub</text><text fill="#000000" stroke="none" font-family="Open Sans" font-size="12pt" font-style="normal" font-weight="normal" text-decoration="normal" x="0" y="42" text-anchor="middle" dominant-baseline="alphabetic" id="_9725A30F-B4B9-4D27-A73B-F94D222DEFBEundefined">Process</text><path fill="none" stroke="none"/><text fill="none" stroke="#393f44" font-family="Open Sans" font-size="12pt" font-style="normal" font-weight="normal" text-decoration="normal" x="0" y="12" text-anchor="middle" dominant-baseline="alphabetic" stroke-miterlimit="10" stroke-dasharray="">Permit</text><path fill="none" stroke="none"/><text fill="none" stroke="#393f44" font-family="Open Sans" font-size="12pt" font-style="normal" font-weight="normal" text-decoration="normal" x="0" y="27" text-anchor="middle" dominant-baseline="alphabetic" stroke-miterlimit="10" stroke-dasharray="">sub</text><path fill="none" stroke="none"/><text fill="none" stroke="#393f44" font-family="Open Sans" font-size="12pt" font-style="normal" font-weight="normal" text-decoration="normal" x="0" y="42" text-anchor="middle" dominant-baseline="alphabetic" stroke-miterlimit="10" stroke-dasharray="">Process</text></g></g></g><g transform="matrix(1,0,0,1,445,109)"/></g></g></svg>